HIERARCHY
ROOT SpineBase
{
  OFFSET 0.000000 0.000000 0.000000
  CHANNELS 6 Xposition Yposition Zposition Zrotation Xrotation Yrotation
  JOINT SpineMid
  {
    OFFSET -0.000000 29.949484 0.000000
    CHANNELS 3 Zrotation Xrotation Yrotation
    JOINT SpineShoulder
    {
      OFFSET 0.126532 22.407411 -0.907035
      CHANNELS 3 Zrotation Xrotation Yrotation
      JOINT Neck
      {
        OFFSET 0.142024 7.486259 -0.652733
        CHANNELS 3 Zrotation Xrotation Yrotation
        JOINT Head
        {
          OFFSET -0.313724 11.938960 4.551768
          CHANNELS 3 Zrotation Xrotation Yrotation
          End Site
          {
            OFFSET 0 0 0
          }
        }
      }
      JOINT ShoulderLeft
      {
        OFFSET -10.263985 -4.671605 -2.299631
        CHANNELS 3 Zrotation Xrotation Yrotation
        JOINT ElbowLeft
        {
          OFFSET -6.932401 -26.387961 6.071146
          CHANNELS 3 Zrotation Xrotation Yrotation
          JOINT WristLeft
          {
            OFFSET 30.548140 1.841173 -12.457448
            CHANNELS 3 Zrotation Xrotation Yrotation
            JOINT HandLeft
            {
              OFFSET 2.845186 6.751801 -4.666888
              CHANNELS 3 Zrotation Xrotation Yrotation
              JOINT HandTipLeft
              {
                OFFSET 2.440671 7.371647 -1.958076
                CHANNELS 3 Zrotation Xrotation Yrotation
                End Site
                {
                  OFFSET 0 0 0
                }
              }
              JOINT ThumbLeft
              {
                OFFSET 3.912813 -1.278796 1.179106
                CHANNELS 3 Zrotation Xrotation Yrotation
                End Site
                {
                  OFFSET 0 0 0
                }
              }
            }
          }
        }
      }
      JOINT ShoulderRight
      {
        OFFSET 9.488426 -6.689661 -10.206847
        CHANNELS 3 Zrotation Xrotation Yrotation
        JOINT ElbowRight
        {
          OFFSET 7.792746 -22.549327 0.754926
          CHANNELS 3 Zrotation Xrotation Yrotation
          JOINT WristRight
          {
            OFFSET 1.263936 -18.597479 9.439211
            CHANNELS 3 Zrotation Xrotation Yrotation
            JOINT HandRight
            {
              OFFSET -2.936192 -4.682783 9.152798
              CHANNELS 3 Zrotation Xrotation Yrotation
              JOINT HandTipRight
              {
                OFFSET 0.366503 -3.485222 2.410291
                CHANNELS 3 Zrotation Xrotation Yrotation
                End Site
                {
                  OFFSET 0 0 0
                }
              }
              JOINT ThumbRight
              {
                OFFSET 0.756414 4.118626 -1.922898
                CHANNELS 3 Zrotation Xrotation Yrotation
                End Site
                {
                  OFFSET 0 0 0
                }
              }
            }
          }
        }
      }
    }
  }
  JOINT HipLeft
  {
    OFFSET -4.724670 0.513843 -1.144848
    CHANNELS 3 Zrotation Xrotation Yrotation
    JOINT KneeLeft
    {
      OFFSET -7.157696 -34.874043 1.222975
      CHANNELS 3 Zrotation Xrotation Yrotation
      JOINT AnkleLeft
      {
        OFFSET -2.713437 -24.598998 2.238219
        CHANNELS 3 Zrotation Xrotation Yrotation
        JOINT FootLeft
        {
          OFFSET 1.396151 -5.843069 -0.866310
          CHANNELS 3 Zrotation Xrotation Yrotation
          End Site
          {
            OFFSET 0 0 0
          }
        }
      }
    }
  }
  JOINT HipRight
  {
    OFFSET 6.253770 2.399115 -4.879672
    CHANNELS 3 Zrotation Xrotation Yrotation
    JOINT KneeRight
    {
      OFFSET -3.459332 -32.295734 -5.074474
      CHANNELS 3 Zrotation Xrotation Yrotation
      JOINT AnkleRight
      {
        OFFSET -3.527701 -28.993584 -1.842282
        CHANNELS 3 Zrotation Xrotation Yrotation
        JOINT FootRight
        {
          OFFSET -4.846736 -3.052667 5.580621
          CHANNELS 3 Zrotation Xrotation Yrotation
          End Site
          {
            OFFSET 0 0 0
          }
        }
      }
    }
  }
}
MOTION
Frames: 11
Frame Time: 0.033333
-62.604471 66.670611 234.691305 0.000000 0.000000 18.788109 -0.000000 0.000000 -18.788109 -0.000000 0.000000 0.000000 -0.000000 0.000000 0.000000 0.000000 0.000000 0.000000 -0.000000 0.000000 0.000000 -0.000000 0.000000 0.000000 -0.000000 0.000000 0.000000 -0.000000 0.000000 0.000000 0.000000 0.000000 0.000000 0.000000 0.000000 0.000000 -0.000000 0.000000 0.000000 -0.000000 0.000000 0.000000 -0.000000 0.000000 0.000000 -0.000000 0.000000 0.000000 0.000000 0.000000 0.000000 0.000000 0.000000 0.000000 -0.000000 0.000000 -18.788109 -0.000000 0.000000 0.000000 -0.000000 0.000000 0.000000 0.000000 0.000000 0.000000 -0.000000 0.000000 -18.788109 -0.000000 0.000000 0.000000 -0.000000 0.000000 0.000000 0.000000 0.000000 0.000000
-62.917754 66.429911 234.827992 -0.369545 -0.314854 19.301765 0.452847 0.174999 -19.303472 -0.000000 0.000000 0.000000 -0.000000 0.000000 0.000000 0.000000 0.000000 0.000000 6.938815 4.381154 0.185695 -9.200032 -4.972168 -3.636559 -0.213599 0.555956 1.158720 4.574292 -1.102062 2.625626 0.000000 0.000000 0.000000 0.000000 0.000000 0.000000 -0.000000 0.000000 0.000000 -0.000000 0.000000 0.000000 -0.000000 0.000000 0.000000 -1.346230 -4.453095 -1.415539 0.000000 0.000000 0.000000 0.000000 0.000000 0.000000 0.452847 0.174999 -19.303472 -0.000000 0.000000 0.000000 28.944453 23.866294 -4.434207 0.000000 0.000000 0.000000 0.452847 0.174999 -19.303472 -0.000000 0.000000 0.000000 6.790936 7.106970 0.894471 0.000000 0.000000 0.000000
-63.109781 66.250849 234.914964 -0.586658 -0.552915 19.686630 0.738641 0.322936 -19.691542 -0.000000 0.000000 0.000000 0.883367 -0.436160 -0.345322 0.000000 0.000000 0.000000 14.078469 8.780195 -0.149504 -19.284709 -9.748732 -8.453048 -1.197829 1.826555 1.490626 10.251075 -2.405039 6.330741 0.000000 0.000000 0.000000 0.000000 0.000000 0.000000 -0.000000 0.000000 0.000000 -0.000000 0.000000 0.000000 -0.651173 -0.930344 -0.681454 -1.661954 -6.785223 -1.803577 0.000000 0.000000 0.000000 0.000000 0.000000 0.000000 1.628894 0.519945 -19.770785 0.050638 -0.430106 0.144729 44.844783 33.507395 -11.713147 0.000000 0.000000 0.000000 0.738641 0.322936 -19.691542 -0.000000 0.000000 0.000000 13.075099 13.754075 0.803782 0.000000 0.000000 0.000000
-63.180551 66.133427 234.952222 -0.653817 -0.715983 19.953663 0.118737 0.066071 -19.977179 0.564542 0.613548 0.016369 1.223741 -0.617284 -0.477044 0.000000 0.000000 0.000000 21.282387 12.989864 -1.000414 -30.248346 -13.917798 -14.487572 -5.015321 4.961252 -0.498567 19.335597 -4.209078 13.231383 0.000000 0.000000 0.000000 0.000000 0.000000 0.000000 -0.000000 0.000000 0.000000 -0.000000 0.000000 0.000000 -0.960401 -1.290039 -1.050444 -2.021367 -8.671255 -2.196479 0.000000 0.000000 0.000000 0.000000 0.000000 0.000000 1.970946 0.665774 -20.057637 -0.003635 -0.433859 0.160992 53.042303 36.980085 -16.104867 0.000000 0.000000 0.000000 1.658856 0.282040 -20.105812 -0.808850 -0.117374 0.138754 18.115659 18.946202 -0.023034 0.000000 0.000000 0.000000
-63.130064 66.077645 234.939765 -0.572214 -0.805220 20.110325 0.051584 0.101771 -20.132626 0.102787 -0.001540 -0.008504 1.952558 -0.078942 -0.576476 0.000000 0.000000 0.000000 28.973113 17.457835 -2.629119 -42.006020 -17.060768 -21.615647 -21.299300 17.580068 -10.442557 43.296955 -4.685627 34.033292 0.000000 0.000000 0.000000 0.000000 0.000000 0.000000 1.329657 0.693819 0.042365 -0.873944 0.000615 -0.029119 -1.251547 -1.567453 -1.432379 -2.088854 -9.750343 -2.267331 0.000000 0.000000 0.000000 0.000000 0.000000 0.000000 1.994591 0.745245 -20.214488 -0.101198 -0.298312 0.139340 56.839456 38.236465 -18.139176 0.000000 0.000000 0.000000 0.814219 0.559333 -20.118321 -0.000000 0.000000 0.000000 21.334894 22.150927 -1.105887 0.000000 0.000000 0.000000
-62.958322 66.083501 234.877593 -0.341773 -0.821137 20.161268 -0.068729 0.145351 -20.176942 0.007081 -0.032022 -0.010812 2.151596 -0.162084 -0.660948 0.000000 0.000000 0.000000 35.997587 20.826575 -4.402221 -54.343776 -18.827141 -29.506295 -78.421760 65.865224 -8.415810 93.683127 22.614579 82.980080 0.000000 0.000000 0.000000 0.000000 0.000000 0.000000 1.438444 0.680303 0.022095 -0.989338 0.060779 -0.011628 -1.519161 -1.755534 -1.822041 -1.875144 -10.076317 -2.019715 0.000000 0.000000 0.000000 0.000000 0.000000 0.000000 1.694587 0.759873 -20.243908 -0.229172 -0.023594 0.081482 57.947803 38.439470 -18.517633 0.000000 0.000000 0.000000 0.603881 0.653001 -20.167158 -0.000000 0.000000 0.000000 22.408969 23.263058 -2.026993 0.000000 0.000000 0.000000
-62.535877 66.210848 234.727623 0.244095 -0.704067 19.887625 0.009962 0.745111 -19.886190 -0.000000 0.000000 0.000000 1.791422 -1.039735 -0.696221 0.000000 0.000000 0.000000 45.970667 24.153350 -6.732807 -75.348920 -17.993842 -41.642869 -148.486000 69.071541 49.415512 113.415178 39.037474 95.292905 0.000000 0.000000 0.000000 0.000000 0.000000 0.000000 1.064328 -0.196620 -0.030390 -1.064439 0.196022 0.034037 -1.853126 -2.408799 -2.045711 -2.939264 -3.718866 -1.995816 0.000000 0.000000 0.000000 0.000000 0.000000 0.000000 0.859664 0.594680 -19.896611 -0.850136 -0.147626 -0.000608 54.563161 36.612898 -16.314726 0.000000 0.000000 0.000000 0.009962 0.745111 -19.886190 -0.000000 0.000000 0.000000 14.318160 16.165994 -2.902168 0.000000 0.000000 0.000000
-62.118443 66.343224 234.560017 0.777566 -0.563783 19.674112 -0.542424 0.792614 -19.666535 -0.000000 0.000000 0.000000 1.839428 -1.141284 -0.715422 0.000000 0.000000 0.000000 55.145699 27.193121 -9.870038 -91.864861 -14.649559 -51.612453 -174.183907 58.265369 87.057679 151.917422 35.973827 101.662884 0.000000 0.000000 0.000000 0.000000 0.000000 0.000000 1.109462 -0.376232 -0.088926 -1.110068 0.374439 0.096196 -2.144620 -1.746962 -3.004032 0.456149 -5.960677 0.783127 0.000000 0.000000 0.000000 0.000000 0.000000 0.000000 -0.542424 0.792614 -19.666535 -0.240616 0.781896 -0.106543 48.114158 27.469170 -11.058141 0.000000 0.000000 0.000000 -1.499925 0.572382 -19.468390 0.558784 -0.298493 -0.072454 10.671110 11.806426 0.354571 0.000000 0.000000 0.000000
-61.713800 66.490358 234.384349 1.268506 -0.403942 19.482460 -1.061256 0.803779 -19.470544 -0.000000 0.000000 0.000000 1.847099 -1.221204 -0.719286 0.000000 0.000000 0.000000 61.062882 28.835489 -12.125373 -102.210788 -10.949593 -57.791732 178.739927 44.295370 108.700757 -92.339095 8.221323 103.795721 0.000000 0.000000 0.000000 0.000000 0.000000 0.000000 1.093773 -0.545347 -0.146136 -1.095209 0.542456 0.156526 -2.263912 -1.847925 -3.163514 1.552753 -3.818605 1.880703 0.000000 0.000000 0.000000 0.000000 0.000000 0.000000 -1.061256 0.803779 -19.470544 0.089823 1.377519 -0.145035 43.055972 28.079333 -9.021097 0.000000 0.000000 0.000000 -2.642932 0.502196 -19.147136 1.026569 -0.133107 -0.175661 7.346471 9.737932 -2.707734 0.000000 0.000000 0.000000
-61.312432 66.607718 234.202126 1.732540 -0.241279 19.459066 -1.553330 0.804498 -19.444512 -0.000000 0.000000 0.000000 1.868658 -1.197543 -0.727009 0.000000 0.000000 0.000000 62.347263 29.159549 -12.636683 -104.440539 -10.056860 -58.921928 176.061450 25.080683 138.026124 -70.000273 17.857546 108.330377 0.000000 0.000000 0.000000 0.000000 0.000000 0.000000 1.087491 -0.535597 -0.143112 -1.088872 0.532782 0.153258 -2.099791 -1.490342 -3.082856 2.542092 -3.958173 2.624316 0.000000 0.000000 0.000000 0.000000 0.000000 0.000000 -2.215955 0.196148 -19.290676 1.112173 2.681277 -0.318593 29.954082 35.426876 -4.380103 0.000000 0.000000 0.000000 -3.781892 0.426100 -18.992618 1.565934 0.219271 -0.310313 9.764556 14.843483 -10.300999 0.000000 0.000000 0.000000
-60.946215 66.694660 234.071632 2.134095 -0.136442 19.458140 -0.920948 0.392639 -19.406078 -1.134899 0.073893 -0.045625 1.887363 -1.166567 -0.733587 0.000000 0.000000 0.000000 57.602949 27.873152 -10.750884 -97.036392 -12.806594 -54.656586 -178.063658 9.387990 172.677749 -41.523168 33.929030 89.630303 0.000000 0.000000 0.000000 0.000000 0.000000 0.000000 1.024240 -0.440502 -0.113638 -1.025141 0.438400 0.121498 -1.507746 -0.540505 -2.570023 2.631049 -6.627769 2.425779 0.000000 0.000000 0.000000 0.000000 0.000000 0.000000 -3.349477 0.134295 -19.236491 1.754503 3.419367 -0.423577 18.678034 41.142243 1.037197 0.000000 0.000000 0.000000 -4.800973 0.385828 -18.868041 2.535105 1.345732 -0.572621 26.751344 29.927967 -43.357664 0.000000 0.000000 0.000000
